<?xml version="1.0" encoding="UTF-8"?>
<svg version="1.1" xmlns="http://www.w3.org/2000/svg" width="16" height="16">
<path d="M0 0 C337.92 0 675.84 0 1024 0 C1024 337.92 1024 675.84 1024 1024 C686.08 1024 348.16 1024 0 1024 C0 686.08 0 348.16 0 0 Z " fill="#000000" transform="translate(0,0)"/>
<path d="M0 0 C9.98680782 2.99923302 18.04121229 11.38748675 25.69067383 18.18457031 C26.88007332 19.23512103 28.07817189 20.27588953 29.28393555 21.30761719 C35.0737842 26.27848535 40.48651822 31.59197135 45.8828125 36.984375 C46.77291016 37.86222656 47.66300781 38.74007812 48.58007812 39.64453125 C54.64249401 45.69366207 60.11253112 52.03931933 65.4453125 58.734375 C66.43349739 59.92001417 67.42510463 61.1028195 68.421875 62.28125 C101.63916878 102.14815389 123.67722997 152.76423513 132.4453125 203.734375 C132.61047363 204.68425293 132.77563477 205.63413086 132.94580078 206.61279297 C137.74474165 235.75879059 137.24758664 267.49559099 133.4453125 296.734375 C133.34347656 297.57726074 133.24164062 298.42014648 133.13671875 299.28857422 C125.94016698 358.38248159 107.25683644 416.80218598 82.0078125 470.546875 C81.40658569 471.83609863 81.40658569 471.83609863 80.79321289 473.15136719 C77.06951549 480.92734665 73.10433181 486.17514138 65.02375793 489.82949829 C59.71194478 491.17268938 54.52393408 491.02912918 49.06518555 491.02490234 C47.19824036 491.03497818 47.19824036 491.03497818 45.2935791 491.04525757 C41.89047117 491.06097214 38.48760735 491.06761094 35.08448005 491.06888914 C32.95464844 491.07031409 30.82484216 491.07459021 28.69501686 491.07988358 C21.25409963 491.09836881 13.81325389 491.10655616 6.37231445 491.10498047 C-0.54645558 491.10377976 -7.46491331 491.12487182 -14.38360435 491.1564678 C-20.33797166 491.18268379 -26.29223731 491.19334553 -32.24666184 491.19206965 C-35.79663125 491.19156154 -39.34632297 491.19716046 -42.89623451 491.21842575 C-46.85973757 491.24152189 -50.82281772 491.23225466 -54.78637695 491.22021484 C-55.95083847 491.23145386 -57.11529999 491.24269287 -58.31504822 491.25427246 C-66.19401511 491.19358488 -72.53685814 489.9617468 -78.78466797 484.94311523 C-82.93829925 479.89558817 -85.94926678 474.72822313 -88.6796875 468.796875 C-89.13851318 467.815979 -89.59733887 466.83508301 -90.07006836 465.82446289 C-112.23871856 417.50950721 -127.37861628 365.64046702 -136.3046875 313.296875 C-136.60306519 311.55772827 -136.60306519 311.55772827 -136.9074707 309.78344727 C-139.81679788 291.9792636 -140.9060435 274.41214891 -140.87036133 256.38208008 C-140.86720716 253.06753397 -140.89075203 249.75388959 -140.91601562 246.43945312 C-140.97546361 226.69395699 -139.30330408 207.10747224 -134.7421875 187.859375 C-134.48356934 186.73772949 -134.22495117 185.61608398 -133.95849609 184.46044922 C-131.65490014 174.70609469 -128.89979897 165.1800963 -125.5546875 155.734375 C-125.26899902 154.9187207 -124.98331055 154.10306641 -124.68896484 153.26269531 C-112.57466462 119.05992222 -94.46639575 87.80468661 -71.5546875 59.734375 C-71.10625488 59.18152832 -70.65782227 58.62868164 -70.19580078 58.05908203 C-63.44930679 49.77719581 -56.20211864 42.18459445 -48.5546875 34.734375 C-46.20477269 32.40207574 -43.86899749 30.0655565 -41.58984375 27.6640625 C-35.65643257 21.48391541 -29.1909756 16.22733388 -22.35546875 11.09521484 C-20.59216507 9.76269658 -18.85534817 8.40021174 -17.1171875 7.03515625 C-6.93206655 -0.7578465 -6.93206655 -0.7578465 0 0 Z " fill="#ED4321" transform="translate(514.5546875,136.265625)"/>
<path d="M0 0 C1.78434448 0.0163147 1.78434448 0.0163147 3.60473633 0.03295898 C26.86442229 0.45528285 46.06638923 9.29371116 62.9375 25.125 C76.64667344 39.48806493 85.82546927 59.48667302 86.625 79.375 C86.6765625 80.11363281 86.728125 80.85226562 86.78125 81.61328125 C87.70979322 104.63341513 77.90043365 126.62380411 62.625 143.375 C47.40279816 159.07465097 25.6596023 168.06989753 3.88012695 168.66748047 C-17.29042627 168.87246162 -35.57455118 162.085713 -52.375 149.375 C-53.35533203 148.67310547 -53.35533203 148.67310547 -54.35546875 147.95703125 C-68.47557319 137.0567131 -79.3943186 117.44477067 -82.09375 99.95214844 C-83.71151231 85.12827782 -84.13222823 69.3324908 -78.375 55.375 C-78.024375 54.37339844 -77.67375 53.37179687 -77.3125 52.33984375 C-69.79388329 32.10745504 -53.47117713 16.18668239 -34.31640625 6.890625 C-23.05169837 1.91012997 -12.29228422 -0.15307406 0 0 Z " fill="#010000" transform="translate(510.375,264.625)"/>
<path d="M0 0 C2.19583321 -0.05017214 4.39334718 -0.0451807 6.58921814 0.00331116 C7.79150558 -0.00939316 8.99379303 -0.02209747 10.23251343 -0.03518677 C13.51899057 -0.05894204 16.80134572 -0.03803996 20.08751225 0.0051887 C23.53116141 0.04177582 26.97464376 0.02698397 30.41842651 0.01956177 C36.19986051 0.01509909 41.97999107 0.05065301 47.76109314 0.11073303 C54.43954643 0.17971047 61.1159872 0.18843678 67.79470736 0.16422075 C74.22782959 0.1420328 80.66023678 0.15955292 87.09327507 0.19612312 C89.82734878 0.21114785 92.56094881 0.21285622 95.29504585 0.20388603 C99.11435779 0.20023745 102.93050574 0.24193264 106.74937439 0.29627991 C108.44750778 0.28209518 108.44750778 0.28209518 110.1799469 0.2676239 C117.64529391 0.44017571 117.64529391 0.44017571 120.38604546 2.7528553 C121.69923135 4.54083814 122.67994857 6.23683668 123.604599 8.24964905 C124.15245056 9.36082092 124.70030212 10.4719928 125.26475525 11.61683655 C126.80421575 15.46763189 128.26600412 19.32472774 129.604599 23.24964905 C129.8206781 23.88096741 130.0367572 24.51228577 130.25938416 25.16273499 C140.37315924 56.2832788 131.34854111 90.74899307 117.604599 119.24964905 C111.05738426 131.99691672 103.08357251 143.72799479 94.604599 155.24964905 C93.61501242 156.61292794 92.62542907 157.97620918 91.635849 159.3394928 C84.76206275 168.72970713 77.43003266 177.63742586 69.604599 186.24964905 C69.12684021 186.77945374 68.64908142 187.30925842 68.15684509 187.8551178 C59.86689897 196.9550516 59.86689897 196.9550516 53.604599 197.24964905 C45.82335991 192.96202751 43.83654412 184.46977751 41.42881775 176.4019928 C39.25385759 168.71029968 37.51326841 160.93037593 35.87413025 153.10902405 C35.64744659 152.02853035 35.64744659 152.02853035 35.41618347 150.9262085 C34.66069829 147.31182021 33.91701566 143.69551669 33.19102478 140.0750885 C29.86134953 120.46478742 29.86134953 120.46478742 18.604599 105.24964905 C18.32487244 105.97796936 18.04514587 106.70628967 17.75694275 107.4566803 C16.68797385 110.04757102 15.47969472 112.46325369 14.167099 114.93714905 C11.64965335 119.89011164 10.00837017 124.88564538 8.604599 130.24964905 C-8.8912633 117.49224945 -16.28076039 90.72200582 -19.57044983 70.10218811 C-22.38625895 50.08531839 -20.10794907 29.60311716 -11.395401 11.24964905 C-11.04353509 10.41836267 -10.69166918 9.58707628 -10.32914066 8.7305994 C-7.76886364 3.51179005 -5.99960663 0.67082268 0 0 Z " fill="#ED4321" transform="translate(455.39540100097656,655.7503509521484)"/>
<path d="M0 0 C12.34416932 5.77655369 21.28059983 20.27457163 29 31 C29.44585449 31.61713867 29.89170898 32.23427734 30.35107422 32.87011719 C59.11092248 73.14053909 81.08713347 130.45342964 73.11791992 180.71948242 C71.50893461 189.87265498 68.45153322 195.52540417 61 201 C56.37266948 203.69927613 51.19823667 203.842342 46 203 C39.23878801 200.24310271 34.13989408 195.43842118 28.85546875 190.5390625 C7.2953868 171.367991 -19.29631971 156.08555953 -47 148 C-45.75394192 144.13261805 -44.37512988 140.39902153 -42.75 136.67578125 C-36.4224612 122.03593541 -30.52557255 107.30627027 -25.17333984 92.28125 C-24.42610928 90.19161648 -23.66960884 88.10525787 -22.90087891 86.0234375 C-15.13608765 64.96733842 -10.05118867 43.1726883 -4.72265625 21.40234375 C-4.47720062 20.40218231 -4.231745 19.40202087 -3.97885132 18.37155151 C-2.50002823 12.27432639 -1.17883737 6.16227907 0 0 Z " fill="#F0EFEC" transform="translate(671,473)"/>
<path d="M0 0 C2.20450554 3.73770516 2.94236968 7.74904937 3.8125 11.9453125 C4.16310483 13.5787666 4.51445614 15.2120606 4.86645508 16.84521484 C5.14243027 18.13501251 5.14243027 18.13501251 5.42398071 19.4508667 C14.3890755 61.07075523 27.77596289 100.99994014 44.77001953 140.01269531 C45.98893215 142.97311905 47.02466874 145.95159161 48 149 C47.1810022 149.26925293 47.1810022 149.26925293 46.34545898 149.54394531 C17.79296909 159.07429941 -7.4356248 173.72669212 -30.12524414 193.41503906 C-43.3815994 204.8855939 -43.3815994 204.8855939 -53.546875 204.37109375 C-59.58906449 203.45706827 -63.5878443 201.03778875 -67.3125 196.1875 C-80.79246261 173.56173169 -71.87539384 136.76108206 -66 113 C-55.21268081 72.3006467 -33.20148188 26.97620403 0 0 Z " fill="#F0EFEC" transform="translate(352,472)"/>
<path d="M0 0 C12.95083343 9.95189412 21.20580027 22.91827493 24 39 C25.6734553 53.83931451 20.90603294 68.85490169 12 80.6484375 C2.71011972 91.6967594 -10.55899387 99.41689505 -25 101 C-41.80213797 102.15998024 -56.59600884 98.27091151 -69.75 87.25 C-81.78348977 75.90413822 -87.62592228 61.10889084 -88.375 44.75 C-88.08119323 32.63479163 -83.78091968 21.88634086 -77 12 C-76.56171875 11.34644531 -76.1234375 10.69289063 -75.671875 10.01953125 C-58.13797887 -13.0597236 -22.96959651 -15.96493627 0 0 Z " fill="#0C2C8A" transform="translate(544,303)"/>
<path d="M0 0 C2.05241161 3.39503936 2.25716403 6.03739852 2.265625 9.97265625 C2.26820313 11.11927734 2.27078125 12.26589844 2.2734375 13.44726562 C2.26570313 14.64029297 2.25796875 15.83332031 2.25 17.0625 C2.25773437 18.25939453 2.26546875 19.45628906 2.2734375 20.68945312 C2.27085937 21.83478516 2.26828125 22.98011719 2.265625 24.16015625 C2.26336914 25.20824463 2.26111328 26.25633301 2.25878906 27.33618164 C2 30 2 30 0 33 C-1.28181844 28.08636266 -1.14724543 23.22608914 -1.125 18.1875 C-1.12886719 17.32318359 -1.13273437 16.45886719 -1.13671875 15.56835938 C-1.12874957 10.28878077 -0.76453257 5.22430593 0 0 Z " fill="#E1E0DF" transform="translate(280,620)"/>
<path d="M0 0 C0.33 0 0.66 0 1 0 C1.94765281 5.58062213 2.1515064 10.97030058 2.125 16.625 C2.12886719 17.45773437 2.13273438 18.29046875 2.13671875 19.1484375 C2.13022094 23.22905986 2.02346367 27.01986352 1 31 C-1 29 -1 29 -1.24291992 26.54150391 C-1.23881104 25.53007324 -1.23470215 24.51864258 -1.23046875 23.4765625 C-1.22853516 22.373125 -1.22660156 21.2696875 -1.22460938 20.1328125 C-1.21236328 18.97523438 -1.20011719 17.81765625 -1.1875 16.625 C-1.18685547 15.47515625 -1.18621094 14.3253125 -1.18554688 13.140625 C-1.13657702 3.80370665 -1.13657702 3.80370665 0 0 Z " fill="#E7E7E5" transform="translate(743,621)"/>
<path d="M0 0 C0.66 0 1.32 0 2 0 C2.53464435 2.20503036 3.05214435 4.41422172 3.5625 6.625 C3.85253906 7.85476563 4.14257812 9.08453125 4.44140625 10.3515625 C4.99059728 13.93858643 4.81517436 16.49097129 4 20 C2 18 2 18 1.9375 15.4375 C1.958125 14.633125 1.97875 13.82875 2 13 C1.67 12.67 1.34 12.34 1 12 C0.76572222 9.98405418 0.58663876 7.961526 0.4375 5.9375 C0.35371094 4.83277344 0.26992188 3.72804688 0.18359375 2.58984375 C0.09271484 1.30787109 0.09271484 1.30787109 0 0 Z " fill="#E2E2E1" transform="translate(352,476)"/>
<path d="M0 0 C2.14014979 4.28029958 2.15816979 4.88772754 1.125 9.25 C0.92132812 10.14203125 0.71765625 11.0340625 0.5078125 11.953125 C0.34023438 12.62859375 0.17265625 13.3040625 0 14 C-0.99 14 -1.98 14 -3 14 C-2.01 9.38 -1.02 4.76 0 0 Z " fill="#E1E1E0" transform="translate(663,508)"/>
<path d="M0 0 C0.66 0.33 1.32 0.66 2 1 C-1.63 4.3 -5.26 7.6 -9 11 C-9.66 10.67 -10.32 10.34 -11 10 C-3.70159453 2.51708428 -3.70159453 2.51708428 0 0 Z " fill="#F64E26" transform="translate(484,154)"/>
<path d="M0 0 C0.33 0.66 0.66 1.32 1 2 C3.52733235 2.65555119 3.52733235 2.65555119 6 3 C4.8125 4.5625 4.8125 4.5625 3 6 C0.3125 5.6875 0.3125 5.6875 -2 5 C-1.34 3.35 -0.68 1.7 0 0 Z " fill="#E4E4E3" transform="translate(626,616)"/>
<path d="M0 0 C0.99 0 1.98 0 3 0 C3.33 1.32 3.66 2.64 4 4 C1.69 4.66 -0.62 5.32 -3 6 C-3 5.34 -3 4.68 -3 4 C-2.34 3.67 -1.68 3.34 -1 3 C-0.67 2.01 -0.34 1.02 0 0 Z " fill="#E6E6E6" transform="translate(396,617)"/>
<path d="M0 0 C0.33 0.99 0.66 1.98 1 3 C-0.3125 5.1875 -0.3125 5.1875 -2 7 C-2.66 7 -3.32 7 -4 7 C-3.39816251 4.97954558 -2.72693904 2.97888961 -2 1 C-1.34 0.67 -0.68 0.34 0 0 Z " fill="#E7E5E5" transform="translate(741,660)"/>
<path d="M0 0 C2.96404505 2.80804268 5.44499019 5.18315774 7 9 C3.6014593 7.8671531 2.26586505 6.73466472 0 4 C0 2.68 0 1.36 0 0 Z " fill="#E8E8E7" transform="translate(700,506)"/>
<path d="M0 0 C0.66 0.33 1.32 0.66 2 1 C-0.31 3.31 -2.62 5.62 -5 8 C-5.66 7.34 -6.32 6.68 -7 6 C-4.69 4.02 -2.38 2.04 0 0 Z " fill="#0C3097" transform="translate(478,304)"/>
</svg>
